:SAMPLES-PER-SECOND 30
:FULLY-SPECIFIED
:DEGREES
155
root  6.172133243 40.25599863 1.016804459 -10.94000244 -53.43599701 10.36798096
lowerback  11.41349983 2.28392005 -1.792170048
upperback  4.083220005 2.790810108 1.549010038
thorax  -2.292079926 1.338879943 2.248399973
lowerneck  -7.339479923 7.06524992 -0.9045339823
upperneck  12.52460003 9.085350037 4.00026989
head  4.72728014 4.64868021 1.923730016
lclavicle  0 -9.442270133e-015 7.951389973e-016
lhumerus  -2.568989992 -15.93770027 76.16570282
lradius  2.824082586e-031 -2.119764511e-031 143.1080017
lwrist  -1.412450015e-030 -1.765562519e-031 6.811999798
lhand  -1.496451383e-031 -27.76390076 20.11240005
lfingers  90 7.125020027 -90
lthumb  89.89689403 5.08795885 91.16245106
rclavicle  0 -9.442270133e-015 7.951389973e-016
rhumerus  4.091289997 26.9654007 -79.20870209
rradius  -2.407139425e-031 2.583509982e-031 132.9759979
rwrist  1.412450015e-030 -1.765562519e-031 -7.742959976
rhand  -7.920061211e-032 -33.2840004 9.303460121
rfingers  -90 -7.125020027 -90
rthumb  -92.93752616 -24.25625642 -97.11982154
rfemur  -21.91250038 13.9744997 1.733739972
rtibia  -0 0 57.8260994
rfoot  -5.633485685e-032 -11.65250015 1.141759992
rtoes  5.373923086 19.29304026 -105.8922705
lfemur  -24.24970055 4.270209789 -11.75419998
ltibia  -0 0 54.34249878
lfoot  -0 -0.2584899962 7.629089832
ltoes  -4.250644065 -19.5611806 -102.515957
156
root  6.100422191 40.05444444 1.112784457 -11.35900879 -53.49099731 10.32397461
lowerback  10.90390015 2.303780079 -1.956940055
upperback  3.991499901 2.810590029 1.429200053
thorax  -2.112220049 1.350640059 2.229609966
lowerneck  -7.666989803 7.021830082 -1.015679955
upperneck  13.05519962 9.001000404 4.236609936
head  4.931069851 4.617819786 2.037699938
lclavicle  0 -9.442270133e-015 7.951389973e-016
lhumerus  -1.90565002 -15.97700024 75.42250061
lradius  2.807272452e-031 -2.141976988e-031 142.6560059
lwrist  -1.412450015e-030 1.765562519e-031 6.965970039
lhand  -1.496451383e-031 -27.76390076 20.11240005
lfingers  90 7.125020027 -90
lthumb  89.89689403 5.08795885 91.16245106
rclavicle  0 -9.442270133e-015 7.951389973e-016
rhumerus  4.096030235 26.69820023 -79.66729736
rradius  -2.398513991e-031 2.591519761e-031 132.7850037
rwrist  7.062250077e-031 -0 -7.703810215
rhand  -7.920061211e-032 -33.2840004 9.303460121
rfingers  -90 -7.125020027 -90
rthumb  -92.93752616 -24.25625642 -97.11982154
rfemur  -21.0135994 14.05550003 2.058549881
rtibia  -0 0 58.81399918
rfoot  -4.801015942e-032 -12.35789967 -0.3719249964
rtoes  5.373923086 19.29304026 -105.8922705
lfemur  -22.93740082 2.858469963 -11.09959984
ltibia  -0 0 53.35910034
lfoot  -0 -0.58188802 8.108400345
ltoes  -4.250644065 -19.5611806 -102.515957
157
root  6.009955669 39.81133408 1.218691116 -11.85699463 -53.66100311 10.19598389
lowerback  10.38729954 2.352119923 -2.075150013
upperback  3.901200056 2.874279976 1.291100025
thorax  -1.925719976 1.384209991 2.161220074
lowerneck  -8.018230438 6.995379925 -1.023059964
upperneck  13.50059986 8.944569588 4.349629879
head  5.123700142 4.598499775 2.098799944
lclavicle  0 -9.442270133e-015 7.951389973e-016
lhumerus  -1.278399944 -15.98760033 74.75910187
lradius  2.788170598e-031 -2.166783043e-031 142.147995
lwrist  -1.412450015e-030 -1.765562519e-031 7.164330006
lhand  -1.496451383e-031 -27.76390076 20.11240005
lfingers  90 7.125020027 -90
lthumb  89.89689403 5.08795885 91.16245106
rclavicle  0 -9.442270133e-015 7.951389973e-016
rhumerus  3.902849913 26.33519936 -80.1289978
rradius  -2.403439486e-031 2.586952391e-031 132.8939972
rwrist  1.412450015e-030 -1.765562519e-031 -7.862679958
rhand  -7.920061211e-032 -33.2840004 9.303460121
rfingers  -90 -7.125020027 -90
rthumb  -92.93752616 -24.25625642 -97.11982154
rfemur  -19.8757 14.25290012 2.548769951
rtibia  -0 0 59.70299911
rfoot  -5.666268754e-032 -13.16349983 -0.9440479875
rtoes  5.373923086 19.29304026 -105.8922705
lfemur  -21.35230064 1.522109985 -10.37250042
ltibia  -0 0 52.58039856
lfoot  -0 -2.082710028 7.756750107
ltoes  -4.250644065 -19.5611806 -102.515957
158
root  5.90179999 39.53444413 1.342706699 -12.69799805 -53.8010025 10.28100586
lowerback  9.917099953 2.402689934 -2.321480036
upperback  3.801700115 2.930099964 1.166890025
thorax  -1.779850006 1.41347003 2.179290056
lowerneck  -8.511309624 7.001989841 -1.24206996
upperneck  14.08839989 8.959139824 4.480319977
head  5.372210026 4.60544014 2.213229895
lclavicle  0 -9.442270133e-015 7.951389973e-016
lhumerus  -0.8412110209 -16.13899994 74.43890381
lradius  2.771754663e-031 -2.187743158e-031 141.7160034
lwrist  -7.062250077e-031 -1.765562519e-031 7.093090057
lhand  -1.496451383e-031 -27.76390076 20.11240005
lfingers  90 7.125020027 -90
lthumb  89.89689403 5.08795885 91.16245106
rclavicle  0 -9.442270133e-015 7.951389973e-016
rhumerus  3.683710098 25.95009995 -80.49250031
rradius  -2.412635454e-031 2.578378212e-031 133.0980072
rwrist  7.062250077e-031 -0 -8.070219994
rhand  -7.920061211e-032 -33.2840004 9.303460121
rfingers  -90 -7.125020027 -90
rthumb  -92.93752616 -24.25625642 -97.11982154
rfemur  -18.44589996 14.30700016 2.946209908
rtibia  -0 0 60.4817009
rfoot  -4.562267197e-032 -14.65180016 -0.8887619972
rtoes  5.373923086 19.29304026 -105.8922705
lfemur  -19.53779984 0.2953799963 -9.873649597
ltibia  -0 0 52.05270004
lfoot  4.425789538e-032 -4.199590206 5.75274992
ltoes  -4.250644065 -19.5611806 -102.515957
